<?xml version="1.0" encoding="UTF-8"?>
<svg version="1.1" xmlns="http://www.w3.org/2000/svg" width="512" height="512">
<path d="M0 0 C1.48446091 0.70455291 2.96100395 1.42596164 4.43041992 2.16137695 C5.63528297 2.74105476 5.63528297 2.74105476 6.86448669 3.33244324 C9.47056838 4.59042357 12.06547717 5.86982965 14.66088867 7.1496582 C16.47169058 8.02826272 18.28322079 8.90536771 20.09545898 9.78100586 C24.55408985 11.93884729 29.00469314 14.11267297 33.45318604 16.2913208 C38.98975088 18.99773783 44.54533884 21.66477664 50.09838867 24.3371582 C51.16355713 24.85205811 52.22872559 25.36695801 53.32617188 25.89746094 C60.96385138 29.58290546 68.64698922 33.16210717 76.34838867 36.7121582 C87.83569838 42.00838186 99.2189969 47.50005796 110.58331299 53.05450439 C121.83180575 58.5503208 133.13116439 63.91148161 144.5300293 69.08911133 C166.09599882 78.9573785 166.09599882 78.9573785 167.84838867 82.4621582 C167.94254243 84.51468163 167.97029221 86.57034936 167.96864319 88.62503052 C167.97070518 90.59806656 167.97070518 90.59806656 167.97280884 92.61096191 C167.96926944 94.07714866 167.96563462 95.54333518 167.96191406 97.00952148 C167.96163212 98.54674274 167.96179006 100.08396413 167.96235657 101.6211853 C167.96264428 105.80276341 167.95675181 109.98431302 167.94978261 114.16588449 C167.94354468 118.53277855 167.94294492 122.89967322 167.9417572 127.26657104 C167.93864519 135.53968072 167.93043354 143.81277724 167.92040771 152.08588111 C167.90924256 161.50291702 167.90373511 170.91995354 167.89871228 180.33699441 C167.88825083 199.71205648 167.87065388 219.08710628 167.84838867 238.4621582 C168.73960733 238.45662745 168.73960733 238.45662745 169.64883041 238.45098495 C184.1040603 238.36265708 198.55926611 238.29645994 213.01470566 238.25490952 C220.00526367 238.23428203 226.99564157 238.20615819 233.98608398 238.16040039 C240.72933689 238.11628166 247.47236381 238.09303576 254.21576691 238.08264923 C256.79145508 238.07524519 259.36713273 238.06078729 261.94274139 238.03923798 C265.54400472 238.01029936 269.14448916 238.00619835 272.74584961 238.00805664 C273.81615417 237.99367554 274.88645874 237.97929443 275.98919678 237.96447754 C276.9707373 237.9699762 277.95227783 237.97547485 278.96356201 237.98114014 C279.81529873 237.97745296 280.66703545 237.97376579 281.54458237 237.96996689 C284.8155194 238.66877859 285.9208635 239.73759111 287.84838867 242.4621582 C288.24151572 245.10997256 288.38955097 247.34277582 288.35632324 249.98858643 C288.36568319 251.13068262 288.36568319 251.13068262 288.37523222 252.29585147 C288.39119749 254.84932265 288.37854447 257.40184387 288.3659668 259.95532227 C288.37138654 261.7852789 288.37850837 263.61523118 288.38720703 265.44517517 C288.405466 270.41856584 288.39836086 275.39162513 288.38569069 280.36502171 C288.37557023 285.57032229 288.38495429 290.77559431 288.39123535 295.980896 C288.39851712 304.7271433 288.38891285 313.47325561 288.36987305 322.21948242 C288.34813052 332.32376335 288.35513453 342.42772109 288.37717867 352.5319941 C288.39535004 361.20901381 288.39788166 369.88593638 288.38742399 378.56296897 C288.38119513 383.74434689 288.38033623 388.92557312 288.39356995 394.10694122 C288.40515207 398.98258077 288.39705947 403.85780546 288.37399292 408.73340034 C288.36871728 410.51997502 288.37019995 412.30658479 288.37904358 414.09314537 C288.39002911 416.53849515 288.3762003 418.98252873 288.35632324 421.42779541 C288.36970757 422.48015959 288.36970757 422.48015959 288.38336229 423.55378366 C288.2837517 429.90282232 286.02330682 434.98024365 281.88354492 439.7043457 C281.23256836 440.24317383 280.5815918 440.78200195 279.91088867 441.3371582 C279.26249023 441.89145508 278.6140918 442.44575195 277.94604492 443.0168457 C273.28868039 446.22583058 269.17791357 446.7379724 263.57885742 446.8762207 C262.55735344 446.90526993 262.55735344 446.90526993 261.51521301 446.93490601 C259.35556274 446.99433952 257.1958581 447.0409402 255.03588867 447.0871582 C253.56516324 447.12537148 252.09445938 447.16442514 250.6237793 447.2043457 C247.03218078 447.30001003 243.44041954 447.38417395 239.84838867 447.4621582 C239.59661865 448.20111328 239.34484863 448.94006836 239.08544922 449.70141602 C238.74296143 450.67949219 238.40047363 451.65756836 238.04760742 452.6652832 C237.7133374 453.63111328 237.37906738 454.59694336 237.03466797 455.59204102 C233.3496021 464.50779207 225.79416322 471.59808818 217.18041992 475.74731445 C206.1703547 480.07990711 195.39955816 480.56712165 184.18041992 476.4934082 C174.08284243 471.85948117 166.50260541 464.5793572 161.84838867 454.4621582 C161.18838867 452.1521582 160.52838867 449.8421582 159.84838867 447.4621582 C133.44838867 447.4621582 107.04838867 447.4621582 79.84838867 447.4621582 C78.52838867 451.0921582 77.20838867 454.7221582 75.84838867 458.4621582 C68.39233151 469.57314534 59.52668871 476.19301944 46.34838867 478.9934082 C34.68187281 480.63868608 23.88203261 477.58064463 14.43823242 470.70825195 C6.70244323 464.3155714 2.3906893 457.12290058 -0.15161133 447.4621582 C-1.14161133 447.43637695 -2.13161133 447.4105957 -3.15161133 447.3840332 C-11.6723182 447.06353549 -18.69206506 446.70849907 -25.11254883 440.5949707 C-30.48238862 434.78677664 -32.37422946 430.32415496 -32.53735352 422.32714844 C-32.56188599 421.27696533 -32.56188599 421.27696533 -32.58691406 420.20556641 C-32.63641218 417.89399463 -32.66962839 415.58266985 -32.69848633 413.27075195 C-32.70913368 412.47285814 -32.71978104 411.67496433 -32.73075104 410.85289192 C-32.78416754 406.6153461 -32.82290159 402.37791613 -32.85180664 398.14013672 C-32.87827789 394.67224116 -32.93357594 391.20675849 -33.01586914 387.73974609 C-33.11600495 383.51904578 -33.16422526 379.30049751 -33.1782608 375.07866096 C-33.1914672 373.49007667 -33.22132147 371.90151916 -33.27004242 370.31362724 C-33.67245552 356.38405524 -29.10285358 346.39552612 -22.15161133 334.4621582 C-22.96221386 334.46584538 -23.77281639 334.46953255 -24.60798264 334.47333145 C-44.32071052 334.56162227 -64.03340439 334.62783847 -83.7462883 334.66940689 C-93.27925461 334.69004277 -102.81208904 334.71818292 -112.3449707 334.76391602 C-120.65266483 334.80375243 -128.96026345 334.82958355 -137.26805043 334.83851218 C-141.66806562 334.84373237 -146.06780757 334.85602283 -150.46773529 334.88507843 C-154.60784297 334.91219717 -158.74756447 334.92061046 -162.88775253 334.91458893 C-164.4083478 334.91569076 -165.92895578 334.92366597 -167.44947433 334.9389801 C-169.52422661 334.95885398 -171.59751684 334.95410872 -173.67230225 334.94317627 C-174.83376141 334.94686344 -175.99522057 334.95055061 -177.19187546 334.95434952 C-180.15161133 334.4621582 -180.15161133 334.4621582 -182.52482224 333.04891586 C-185.04838082 329.03620486 -184.70319337 325.24288147 -184.6595459 320.59301758 C-184.66578586 319.57970116 -184.67202582 318.56638474 -184.67845488 317.52236176 C-184.69444814 314.11664266 -184.68175546 310.71163299 -184.66918945 307.3059082 C-184.67460773 304.86848532 -184.68172873 302.43106572 -184.69042969 299.99365234 C-184.70680191 294.05446576 -184.70436935 288.11546437 -184.69277912 282.17628288 C-184.68375003 277.34992691 -184.68251851 272.52362762 -184.68687439 267.69726562 C-184.68748732 267.01067289 -184.68810025 266.32408015 -184.68873176 265.61668158 C-184.69001065 264.22193462 -184.6913075 262.82718768 -184.69262213 261.43244076 C-184.70403164 248.35012951 -184.69090843 235.26793034 -184.66942066 222.18563747 C-184.6515493 210.95744242 -184.65465331 199.72941277 -184.6730957 188.5012207 C-184.6944959 175.46612066 -184.70293297 162.43111888 -184.69064665 149.39600372 C-184.68937244 148.00635276 -184.68811495 146.61670178 -184.68687439 145.22705078 C-184.68625729 144.54329423 -184.68564019 143.85953769 -184.68500438 143.15506124 C-184.68154892 138.33381895 -184.68738404 133.51263891 -184.6967926 128.69140625 C-184.70917455 122.2038396 -184.70037447 115.71651219 -184.67721558 109.22897339 C-184.67191405 106.84407065 -184.67346677 104.45914167 -184.68226624 102.07424927 C-184.6931479 98.82623993 -184.67954661 95.57924312 -184.6595459 92.33129883 C-184.66846879 91.3807235 -184.67739167 90.43014816 -184.68658495 89.45076752 C-184.61026202 83.08956933 -184.61026202 83.08956933 -182.32128143 79.95835876 C-179.38150238 77.93109247 -176.30895954 76.33098215 -173.08911133 74.80981445 C-172.39446777 74.47368637 -171.69982422 74.13755829 -170.98413086 73.79124451 C-168.7105435 72.69401379 -166.431286 71.60917746 -164.15161133 70.5246582 C-162.55630134 69.75826775 -160.96125198 68.99133453 -159.36645508 68.22387695 C-148.88661516 63.1923629 -138.35514006 58.27634714 -127.79418945 53.41748047 C-118.35053079 49.05860978 -108.99709461 44.52684206 -99.65161133 39.9621582 C-88.10316 34.32146229 -76.51260154 28.80573993 -64.83447266 23.43725586 C-53.40393766 18.16137044 -42.09277251 12.64453881 -30.78637695 7.10864258 C-30.0646077 6.75589264 -29.34283844 6.4031427 -28.59919739 6.03970337 C-27.25409981 5.38207133 -25.90970909 4.72299048 -24.56620789 4.06210327 C-22.76750807 3.18272969 -20.95966125 2.32214331 -19.15161133 1.4621582 C-18.00990479 0.89384277 -16.86819824 0.32552734 -15.69189453 -0.26000977 C-9.95703856 -2.32995226 -5.53599205 -2.31797859 0 0 Z " fill="#231F20" transform="translate(200.151611328125,17.537841796875)"/>
<path d="M0 0 C0.73205154 0.35978439 1.46410309 0.71956879 2.21833801 1.09025574 C3.77995221 1.85813163 5.34038965 2.62840471 6.89971924 3.40090942 C11.04927079 5.45583738 15.20824008 7.49151562 19.3671875 9.52734375 C20.61302612 10.13771736 20.61302612 10.13771736 21.8840332 10.76042175 C28.92422218 14.20172049 36.01445222 17.52063593 43.13671875 20.7890625 C53.6662633 25.6279821 64.09967209 30.6409975 74.51171875 35.7265625 C86.33816845 41.50234144 98.20802178 47.15568806 110.15942383 52.66894531 C117.86268779 56.2233407 125.54236702 59.8231915 133.19921875 63.4765625 C134.18051758 63.94304199 135.16181641 64.40952148 136.17285156 64.89013672 C137.06198242 65.31568848 137.95111328 65.74124023 138.8671875 66.1796875 C139.64731201 66.55254883 140.42743652 66.92541016 141.23120117 67.30957031 C143.01171875 68.2265625 143.01171875 68.2265625 144.01171875 69.2265625 C144.10828705 71.12484486 144.13359091 73.02676913 144.13197327 74.92750549 C144.13403526 76.78488846 144.13403526 76.78488846 144.13613892 78.67979431 C144.13259931 80.06460595 144.12896449 81.44941735 144.12524414 82.83422852 C144.12496227 84.28263344 144.12511999 85.73103851 144.12568665 87.17944336 C144.12597464 91.12348564 144.12007755 95.06749777 144.11311269 99.01153302 C144.10687953 103.12885719 144.10627538 107.24618198 144.10508728 111.36351013 C144.10197385 119.16562112 144.09376031 126.96771817 144.08373779 134.76982301 C144.07257701 143.64996554 144.06706629 152.53010872 144.06204236 161.41025651 C144.0515777 179.68236802 144.03323208 197.95446042 144.01171875 216.2265625 C133.45171875 216.2265625 122.89171875 216.2265625 112.01171875 216.2265625 C112.01171875 195.1065625 112.01171875 173.9865625 112.01171875 152.2265625 C116.30171875 151.5665625 120.59171875 150.9065625 125.01171875 150.2265625 C127.2071233 145.83575341 127.30207694 142.60845773 127.27734375 137.84765625 C127.2792572 137.0391774 127.28117065 136.23069855 127.28314209 135.39772034 C127.28450055 133.69230843 127.2808278 131.98688606 127.27246094 130.28149414 C127.2617425 127.66984903 127.27237466 125.05888959 127.28515625 122.44726562 C127.28383487 120.78906098 127.28127291 119.13085676 127.27734375 117.47265625 C127.28341644 116.30070961 127.28341644 116.30070961 127.28961182 115.10508728 C127.2564962 111.28295748 127.18256374 109.48282998 125.01171875 106.2265625 C122.12963077 105.26586651 120.32152338 105.09872999 117.32773685 105.09234142 C116.35932993 105.08788358 115.39092301 105.08342574 114.39317042 105.07883281 C113.32684474 105.07901717 112.26051907 105.07920153 111.16188049 105.07939148 C109.46555297 105.07387645 109.46555297 105.07387645 107.7349562 105.06825 C103.92559453 105.05719046 100.11626011 105.05336551 96.30688477 105.04956055 C93.58390061 105.04383096 90.86092056 105.03666419 88.13793945 105.02964783 C79.95371475 105.00988718 71.76948882 104.9998191 63.58524624 104.99092004 C59.73297174 104.98653771 55.88069862 104.98117087 52.02842522 104.97593117 C39.22682893 104.9589216 26.42523351 104.94442569 13.62362766 104.93718243 C10.30173809 104.93527249 6.97984853 104.93335216 3.65795898 104.93139648 C2.83230444 104.93091274 2.00664989 104.930429 1.15597551 104.9299306 C-12.23011724 104.9216237 -25.61612082 104.89627448 -39.00217461 104.86381581 C-52.73872145 104.83077808 -66.4752229 104.81273677 -80.21180969 104.80953819 C-87.92719146 104.80737036 -95.64244307 104.79858175 -103.35778618 104.77307701 C-109.92584999 104.75141507 -116.49375202 104.74329735 -123.0618475 104.75304379 C-126.41438188 104.7576014 -129.76631035 104.75345554 -133.11884499 104.73628235 C-136.7500025 104.7187174 -140.38030288 104.72559416 -144.01145935 104.73881531 C-145.60760178 104.72236144 -145.60760178 104.72236144 -147.23598951 104.70557517 C-152.77433315 104.68399829 -152.77433315 104.68399829 -157.64396763 107.02035236 C-159.70155894 110.39715279 -159.52018177 113.73781237 -159.44921875 117.5703125 C-159.44830231 118.37641968 -159.44738586 119.18252686 -159.44644165 120.01306152 C-159.44041008 121.71433413 -159.42467725 123.41559633 -159.39990234 125.11669922 C-159.36340811 127.71752144 -159.35888303 130.31691725 -159.359375 132.91796875 C-159.34954264 134.57292895 -159.33788512 136.22787952 -159.32421875 137.8828125 C-159.3219931 138.65894897 -159.31976746 139.43508545 -159.31747437 140.23474121 C-159.24051518 145.54802283 -159.24051518 145.54802283 -156.98828125 150.2265625 C-153.06683027 152.18728799 -148.35459125 151.82962523 -143.98828125 152.2265625 C-143.98828125 199.7465625 -143.98828125 247.2665625 -143.98828125 296.2265625 C-154.54828125 296.2265625 -165.10828125 296.2265625 -175.98828125 296.2265625 C-175.98828125 221.3165625 -175.98828125 146.4065625 -175.98828125 69.2265625 C-165.42784029 63.94634202 -154.8616078 58.68957883 -144.23828125 53.5390625 C-143.53040466 53.19551727 -142.82252808 52.85197205 -142.09320068 52.49801636 C-131.35759535 47.29168284 -120.56825368 42.2201786 -109.72949219 37.23168945 C-100.25410179 32.85384466 -90.86692779 28.30713606 -81.48828125 23.7265625 C-69.56501146 17.90381554 -57.61192766 12.1654498 -45.54174805 6.65234375 C-40.41885873 4.30976325 -35.34521161 1.9286302 -30.3515625 -0.6796875 C-29.48982422 -1.12054688 -28.62808594 -1.56140625 -27.74023438 -2.015625 C-26.18277459 -2.81867072 -24.63682684 -3.64473169 -23.10742188 -4.5 C-14.96653949 -8.65115816 -7.55583476 -3.77771978 0 0 Z " fill="#56A3FE" transform="translate(207.98828125,39.7734375)"/>
<path d="M0 0 C73.92 0 147.84 0 224 0 C224 21.12 224 42.24 224 64 C217.73 64.33 211.46 64.66 205 65 C200.85283088 68.76756681 200.85283088 68.76756681 200.45410156 73.40136719 C200.43438293 74.2619574 200.41466431 75.12254761 200.39434814 76.00921631 C200.39311951 76.92914368 200.39189087 77.84907104 200.390625 78.796875 C200.37408875 79.74564514 200.35755249 80.69441528 200.34051514 81.67193604 C200.29198561 84.69802288 200.27065305 87.72360701 200.25 90.75 C200.22184449 92.80341078 200.19191765 94.85679808 200.16015625 96.91015625 C200.08622516 101.94006279 200.03668067 106.96968944 200 112 C198.6039151 112.00546844 198.6039151 112.00546844 197.17962646 112.01104736 C188.40984174 112.04798333 179.64040861 112.10574037 170.87089157 112.18390274 C166.36231781 112.22341776 161.85394054 112.25558636 157.34521484 112.27099609 C152.99426964 112.28613637 148.64386447 112.32053453 144.29315948 112.36830902 C142.63302554 112.38315008 140.97281451 112.39104258 139.31261444 112.39188385 C136.98744587 112.39424719 134.66377745 112.42127256 132.33886719 112.45410156 C131.6519429 112.4490712 130.96501862 112.44404083 130.25727844 112.43885803 C126.95570302 112.51101805 125.26871951 112.78819477 122.64329529 114.8575592 C120.64794432 117.45899143 119.23706697 120.09456787 117.80078125 123.04296875 C117.23166016 124.19861328 116.66253906 125.35425781 116.07617188 126.54492188 C115.48791148 127.75893548 114.90002512 128.97313039 114.3125 130.1875 C113.14502075 132.5783535 111.97299692 134.96692896 110.80078125 137.35546875 C110.02988159 138.94331177 110.02988159 138.94331177 109.2434082 140.56323242 C108 143 108 143 107 144 C105.60856311 144.09543095 104.21231633 144.12188575 102.81761169 144.12025452 C101.91780547 144.12163201 101.01799925 144.12300951 100.09092617 144.12442875 C99.0921095 144.12083064 98.09329283 144.11723253 97.06420898 144.11352539 C96.00348458 144.11364593 94.94276018 144.11376646 93.84989262 144.11389065 C90.39860538 144.11314116 86.94737139 144.10551131 83.49609375 144.09765625 C81.37243679 144.09618694 79.24877947 144.09516616 77.12512207 144.09460449 C69.22924254 144.08935032 61.33337076 144.07538926 53.4375 144.0625 C35.803125 144.041875 18.16875 144.02125 0 144 C0 96.48 0 48.96 0 0 Z " fill="#FECC00" transform="translate(80,192)"/>
<path d="M0 0 C58.08 0 116.16 0 176 0 C176 36.96 176 73.92 176 112 C165.44 112 154.88 112 144 112 C143.98018066 109.74373779 143.96036133 107.48747559 143.93994141 105.1628418 C143.87308623 97.71481977 143.79544607 90.26693845 143.71247292 82.8190794 C143.66249018 78.30267608 143.61616036 73.78629638 143.578125 69.26977539 C143.5412971 64.91248951 143.49494406 60.55540028 143.44193649 56.19828224 C143.42337924 54.53451798 143.40827621 52.87071155 143.39665604 51.20688438 C143.37981619 48.87949792 143.35078727 46.55256312 143.31884766 44.2253418 C143.31668747 43.53482224 143.31452728 42.84430267 143.31230164 42.13285828 C143.24904004 38.53336742 143.05791628 37.08687442 141 34 C138.26621127 33.08873709 136.6462035 32.8691516 133.83180237 32.85282898 C132.98362946 32.84567368 132.13545654 32.83851837 131.26158142 32.83114624 C129.87054955 32.82711288 129.87054955 32.82711288 128.45141602 32.82299805 C127.47229248 32.81642685 126.49316895 32.80985565 125.484375 32.80308533 C122.24088467 32.78335659 118.99744055 32.77169266 115.75390625 32.76171875 C114.64736128 32.75764322 113.54081631 32.7535677 112.40073967 32.74936867 C106.54767925 32.72851302 100.69464227 32.71420724 94.84155273 32.70483398 C88.78733118 32.69375088 82.73347528 32.65932743 76.67938328 32.61966228 C72.0306071 32.59356416 67.3819191 32.58514836 62.7330761 32.58155251 C60.5006964 32.5766715 58.26832102 32.56501477 56.03601265 32.54651451 C52.91636929 32.52226081 49.79768657 32.52306266 46.67797852 32.5300293 C45.75264816 32.51721924 44.82731781 32.50440918 43.87394714 32.49121094 C40.0789642 32.52217673 37.70925919 32.56665293 34.429245 34.57069397 C32.51743631 37.82021969 32.42723608 40.67023597 32.45410156 44.33886719 C32.44376389 45.07096909 32.43342621 45.80307098 32.42277527 46.55735779 C32.39334033 48.97075452 32.39184803 51.38331286 32.390625 53.796875 C32.37564373 55.47269287 32.35891669 57.14849598 32.34051514 58.82427979 C32.29682306 63.23012977 32.27683853 67.63578059 32.26177979 72.04180908 C32.24221531 76.53971137 32.2002446 81.03739835 32.16015625 85.53515625 C32.08483382 94.35674089 32.03662607 103.17816973 32 112 C21.44 112 10.88 112 0 112 C0 75.04 0 38.08 0 0 Z " fill="#FE9711" transform="translate(296,272)"/>
<path d="M0 0 C5.28 0 10.56 0 16 0 C16 31.68 16 63.36 16 96 C-15.68 96 -47.36 96 -80 96 C-80 85.44 -80 74.88 -80 64 C-77.77926758 63.98018066 -75.55853516 63.96036133 -73.27050781 63.93994141 C-65.93425067 63.87304281 -58.59813556 63.79540316 -51.262043 63.71247292 C-46.81405 63.66252117 -42.36608061 63.61619102 -37.91796875 63.578125 C-33.62551581 63.54125802 -29.33326101 63.49489422 -25.04097748 63.44193649 C-23.40315984 63.42340005 -21.76529974 63.4082893 -20.12741852 63.39665604 C-17.8337626 63.37978064 -15.54055971 63.35074298 -13.24707031 63.31884766 C-11.28849091 63.29886215 -11.28849091 63.29886215 -9.29034424 63.2784729 C-6.22878172 63.01936257 -4.4687254 62.79081121 -2 61 C-0.95873076 57.87619227 -0.84447668 55.61482146 -0.79467773 52.33520508 C-0.77473251 51.17422806 -0.75478729 50.01325104 -0.73423767 48.8170929 C-0.71752518 47.56389755 -0.70081268 46.31070221 -0.68359375 45.01953125 C-0.6524221 43.09484261 -0.6524221 43.09484261 -0.62062073 41.13127136 C-0.56548094 37.72337185 -0.51603611 34.31541259 -0.46777344 30.90740967 C-0.41749921 27.42845352 -0.36184409 23.94958393 -0.30664062 20.47070312 C-0.19915809 13.6472089 -0.0981886 6.82363423 0 0 Z " fill="#EC1C23" transform="translate(264,320)"/>
<path d="M0 0 C84.48 0 168.96 0 256 0 C256 5.28 256 10.56 256 16 C171.52 16 87.04 16 0 16 C0 10.72 0 5.44 0 0 Z " fill="#808285" transform="translate(64,160)"/>
<path d="M0 0 C5.28 0 10.56 0 16 0 C16.04898437 1.83046875 16.09796875 3.6609375 16.1484375 5.546875 C16.22347053 7.94793196 16.29901813 10.34897288 16.375 12.75 C16.4059375 13.9565625 16.436875 15.163125 16.46875 16.40625 C16.50742187 17.56640625 16.54609375 18.7265625 16.5859375 19.921875 C16.63306885 21.52434082 16.63306885 21.52434082 16.68115234 23.15917969 C16.99747435 25.97749732 17.37896 27.68379553 19 30 C23.09174222 31.1981894 25.32246812 31.26255358 29.31640625 29.71484375 C31.48356946 28.52825017 33.65023509 27.34074738 35.81640625 26.15234375 C39.77167706 24.72068131 41.24350292 25.26345745 45 27 C46.34842266 27.67916877 47.6840901 28.38480068 49 29.125 C52.48399689 30.9102986 55.03284487 31.55355653 59 31 C62.24849977 29.27773504 62.24849977 29.27773504 63 26 C63.14986411 24.0093556 63.24828038 22.01464609 63.31640625 20.01953125 C63.37924805 18.27446289 63.37924805 18.27446289 63.44335938 16.49414062 C63.48267578 15.27919922 63.52199219 14.06425781 63.5625 12.8125 C63.62727539 10.97268555 63.62727539 10.97268555 63.69335938 9.09570312 C63.79953014 6.06393808 63.90027764 3.031984 64 0 C69.28 0 74.56 0 80 0 C80 21.12 80 42.24 80 64 C53.6 64 27.2 64 0 64 C0 42.88 0 21.76 0 0 Z " fill="#A87B4F" transform="translate(344,320)"/>
<path d="M0 0 C6.69809768 4.76229994 11.16407958 11.54657266 13.3125 19.4375 C14.63589593 30.16397224 12.19041124 39.59787827 5.75 48.3125 C0.28372089 54.13558584 -8.47801718 57.97761801 -16.38671875 58.67578125 C-23.47576445 58.85184905 -28.58109455 58.08992943 -34.6875 54.4375 C-35.73744141 53.81875 -35.73744141 53.81875 -36.80859375 53.1875 C-44.18574415 48.27869671 -48.3361054 40.87045608 -50.6875 32.4375 C-51.56805277 24.27702844 -50.98966839 17.4871591 -46.6875 10.4375 C-46.26339844 9.73882812 -45.83929688 9.04015625 -45.40234375 8.3203125 C-34.72335 -7.44533287 -15.737631 -9.39997249 0 0 Z " fill="#242122" transform="translate(210.6875,61.5625)"/>
<path d="M0 0 C58.08 0 116.16 0 176 0 C176 5.28 176 10.56 176 16 C117.92 16 59.84 16 0 16 C0 10.72 0 5.44 0 0 Z " fill="#D80027" transform="translate(296,400)"/>
<path d="M0 0 C0.73205154 0.35978439 1.46410309 0.71956879 2.21833801 1.09025574 C3.77995221 1.85813163 5.34038965 2.62840471 6.89971924 3.40090942 C11.04927079 5.45583738 15.20824008 7.49151562 19.3671875 9.52734375 C20.61302612 10.13771736 20.61302612 10.13771736 21.8840332 10.76042175 C28.92422218 14.20172049 36.01445222 17.52063593 43.13671875 20.7890625 C53.6662633 25.6279821 64.09967209 30.6409975 74.51171875 35.7265625 C86.33816845 41.50234144 98.20802178 47.15568806 110.15942383 52.66894531 C117.86268779 56.2233407 125.54236702 59.8231915 133.19921875 63.4765625 C134.18051758 63.94304199 135.16181641 64.40952148 136.17285156 64.89013672 C137.06198242 65.31568848 137.95111328 65.74124023 138.8671875 66.1796875 C139.64731201 66.55254883 140.42743652 66.92541016 141.23120117 67.30957031 C143.01171875 68.2265625 143.01171875 68.2265625 144.01171875 69.2265625 C144.05264812 71.55953683 144.05413598 73.89361475 144.01171875 76.2265625 C132.88872262 71.59348308 122.06109459 66.3885126 111.23348999 61.11343384 C101.95328989 56.59403463 92.63987614 52.16540614 83.26171875 47.8515625 C72.60911461 42.94660161 62.04915426 37.87301435 51.51171875 32.7265625 C39.63671339 26.92729526 27.72758622 21.22434865 15.71240234 15.72045898 C10.37222632 13.27147355 5.06983963 10.77913085 -0.17578125 8.1328125 C-1.62235107 7.41146118 -1.62235107 7.41146118 -3.09814453 6.67553711 C-4.88102354 5.78157897 -6.65620486 4.87201707 -8.42138672 3.94360352 C-9.20400879 3.55358154 -9.98663086 3.16355957 -10.79296875 2.76171875 C-11.46312012 2.4150415 -12.13327148 2.06836426 -12.82373047 1.71118164 C-18.26764632 0.49234869 -24.52396308 4.79233187 -29.375 7.12109375 C-30.58410789 7.69652672 -30.58410789 7.69652672 -31.81764221 8.28358459 C-34.438636 9.53205723 -37.0572135 10.78551057 -39.67578125 12.0390625 C-41.49629009 12.90733471 -43.31692909 13.77533406 -45.13769531 14.64306641 C-56.26328378 19.9491792 -67.36901901 25.29581369 -78.46557617 30.66235352 C-87.24500117 34.89674031 -96.08760348 38.98711595 -104.93945312 43.06738281 C-114.5995924 47.53966952 -124.17341511 52.17952402 -133.73828125 56.8515625 C-144.14980767 61.93603408 -154.57871528 66.96354123 -165.11328125 71.7890625 C-166.11456055 72.24812988 -167.11583984 72.70719727 -168.14746094 73.18017578 C-174.85071345 76.2265625 -174.85071345 76.2265625 -175.98828125 76.2265625 C-175.98828125 73.9165625 -175.98828125 71.6065625 -175.98828125 69.2265625 C-165.43823899 63.92793753 -154.86146155 58.68950793 -144.23828125 53.5390625 C-143.53040466 53.19551727 -142.82252808 52.85197205 -142.09320068 52.49801636 C-131.35759535 47.29168284 -120.56825368 42.2201786 -109.72949219 37.23168945 C-100.25410179 32.85384466 -90.86692779 28.30713606 -81.48828125 23.7265625 C-69.56501146 17.90381554 -57.61192766 12.1654498 -45.54174805 6.65234375 C-40.41885873 4.30976325 -35.34521161 1.9286302 -30.3515625 -0.6796875 C-29.48982422 -1.12054688 -28.62808594 -1.56140625 -27.74023438 -2.015625 C-26.18277459 -2.81867072 -24.63682684 -3.64473169 -23.10742188 -4.5 C-14.96653949 -8.65115816 -7.55583476 -3.77771978 0 0 Z " fill="#2486FA" transform="translate(207.98828125,39.7734375)"/>
<path d="M0 0 C1.47583954 0.00025104 2.95168496 0.00581025 4.42749023 0.01586914 C5.11452026 0.01687622 5.80155029 0.0178833 6.50939941 0.0189209 C9.08497783 0.02416763 11.66053252 0.0381288 14.23608398 0.05102539 C19.99045898 0.07165039 25.74483398 0.09227539 31.67358398 0.11352539 C31.67358398 15.95352539 31.67358398 31.79352539 31.67358398 48.11352539 C12.20358398 48.11352539 -7.26641602 48.11352539 -27.32641602 48.11352539 C-21.91208934 36.68328019 -16.49533038 25.28905864 -10.82641602 13.98852539 C-10.20128603 12.73468394 -9.57628607 11.48077765 -8.95141602 10.22680664 C-8.36360352 9.0524707 -7.77579102 7.87813477 -7.17016602 6.66821289 C-6.64616211 5.62133301 -6.1221582 4.57445312 -5.58227539 3.49584961 C-3.8079216 0.12995843 -3.8079216 0.12995843 0 0 Z " fill="#A6A8AB" transform="translate(216.326416015625,319.886474609375)"/>
<path d="M0 0 C5.54094498 3.80181626 10.12258391 9.01297779 12.140625 15.46875 C13.08103471 22.5564695 12.59103013 28.42532165 8.6953125 34.5 C4.85409242 39.3642586 0.04233945 43.46439415 -5.859375 45.46875 C-13.23949129 46.31427959 -19.84657518 46.14675815 -25.859375 41.46875 C-32.48648191 35.25436327 -35.80692807 30.246143 -36.234375 21.09375 C-36.06149574 14.36965668 -34.40452533 10.14210753 -29.765625 5.26953125 C-21.0360648 -2.83441047 -11.14510397 -5.61264228 0 0 Z " fill="#57585A" transform="translate(411.859375,434.53125)"/>
<path d="M0 0 C5.54094498 3.80181626 10.12258391 9.01297779 12.140625 15.46875 C13.08103471 22.5564695 12.59103013 28.42532165 8.6953125 34.5 C4.85409242 39.3642586 0.04233945 43.46439415 -5.859375 45.46875 C-13.23949129 46.31427959 -19.84657518 46.14675815 -25.859375 41.46875 C-32.48648191 35.25436327 -35.80692807 30.246143 -36.234375 21.09375 C-36.06149574 14.36965668 -34.40452533 10.14210753 -29.765625 5.26953125 C-21.0360648 -2.83441047 -11.14510397 -5.61264228 0 0 Z " fill="#57585A" transform="translate(251.859375,434.53125)"/>
<path d="M0 0 C31.68 0 63.36 0 96 0 C94.02 4.29 92.04 8.58 90 13 C89.67 13.99 89.34 14.98 89 16 C61.94 16 34.88 16 7 16 C5.35 12.04 3.7 8.08 2 4 C1.34 2.68 0.68 1.36 0 0 Z " fill="#FECC00" transform="translate(272,432)"/>
<path d="M0 0 C4.35699098 2.46622131 7.04335342 5.33670683 9.3125 9.875 C10.1256597 15.41272046 9.96889753 19.69106213 6.625 24.3125 C3.4441717 27.96565548 0.9670803 30.52254312 -4.01171875 31.18359375 C-9.76237781 31.46725855 -13.23123338 30.80075869 -17.6875 26.875 C-22.17485572 22.02380463 -23.06694978 18.50237243 -22.96875 11.8984375 C-22.33090739 7.3095143 -19.40142374 4.50393282 -16.0625 1.5625 C-10.83094803 -2.15465535 -5.95356591 -1.81634214 0 0 Z " fill="#FAC900" transform="translate(198.6875,73.125)"/>
<path d="M0 0 C13.2 0 26.4 0 40 0 C40 11.55555556 40 11.55555556 37 15 C33.70265354 16.09911549 31.27041255 16.1139456 27.80078125 16.09765625 C26.59228516 16.09443359 25.38378906 16.09121094 24.13867188 16.08789062 C22.87603516 16.07951172 21.61339844 16.07113281 20.3125 16.0625 C18.40114258 16.05573242 18.40114258 16.05573242 16.45117188 16.04882812 C13.30073436 16.03702873 10.15039051 16.02056597 7 16 C6.66226562 15.18015625 6.32453125 14.3603125 5.9765625 13.515625 C5.53054688 12.43796875 5.08453125 11.3603125 4.625 10.25 C4.18414062 9.18265625 3.74328125 8.1153125 3.2890625 7.015625 C2.27388243 4.64071889 1.15505581 2.31011161 0 0 Z " fill="#FDCB00" transform="translate(432,432)"/>
<path d="M0 0 C0.33 0 0.66 0 1 0 C1 11.88 1 23.76 1 36 C-10.88 36 -22.76 36 -35 36 C-31.85581073 33.48464859 -29.03078223 31.30837556 -25.6875 29.1875 C-14.4573898 21.70694725 -6.2623465 11.98014114 0 0 Z " fill="#8B5E3C" transform="translate(423,348)"/>
<path d="M0 0 C7.92 0 15.84 0 24 0 C22.47005208 3.28776042 20.94010417 6.57552083 19.41015625 9.86328125 C17.96515061 12.93693062 17.96515061 12.93693062 17 16 C15.08404032 16.08133791 13.16708068 16.13934367 11.25 16.1875 C9.64898437 16.23970703 9.64898437 16.23970703 8.015625 16.29296875 C4.65263456 15.96625336 3.36358747 15.36910987 1 13 C0 10 0 10 0 0 Z " fill="#FCCA00" transform="translate(184,432)"/>
<path d="M0 0 C5.28 0 10.56 0 16 0 C16 3.63 16 7.26 16 11 C13.525 10.01 13.525 10.01 11 9 C6.37360022 8.61446669 4.51464774 9.1941409 0 11 C0 7.37 0 3.74 0 0 Z " fill="#FD6142" transform="translate(376,320)"/>
</svg>
